<svg xmlns="http://www.w3.org/2000/svg" xmlns:xlink="http://www.w3.org/1999/xlink" version="1.1" id="Layer_1" x="0px" y="0px" viewBox="0 0 99.15 123.38" style="enable-background:new 0 0 99.15 123.38" xml:space="preserve"><style type="text/css">.st0{fill-rule:evenodd;clip-rule:evenodd;stroke:#fbff25;stroke-width:0.5;stroke-miterlimit:2.6131;}</style><g><path class="st0" d="M5.44,40.34h15.84V8.47c0-4.52,3.7-8.22,8.22-8.22l0,0c4.52,0,8.22,3.7,8.22,8.22v31.87h24.13V8.47 c0-4.52,3.7-8.22,8.22-8.22l0,0c4.52,0,8.22,3.7,8.22,8.22v31.87h15.42c2.86,0,5.19,2.34,5.19,5.19v6.02 c0,2.86-2.34,5.19-5.19,5.19l-88.27,0c-2.86,0-5.19-2.34-5.19-5.19v-6.02C0.25,42.67,2.59,40.34,5.44,40.34L5.44,40.34z M9.52,56.84l0,12.58c-0.01,22.06,9.79,32.85,32.27,35.56v18.15h16.44v-18.35c22.25-2.14,32.27-15.22,32.27-36.59V56.84H9.52 L9.52,56.84z M28.11,61.42H71.9v6.51H28.11V61.42L28.11,61.42z" fill="#fbff25"/></g></svg>